<?xml version="1.0" encoding="UTF-8"?>
<svg width="400" height="200" viewBox="0 0 400 200" xmlns="http://www.w3.org/2000/svg">
  <!-- MTB Logo -->
  <g fill="#E53E3E">
    <!-- M harfi -->
    <polygon points="20,50 20,150 40,150 40,80 60,120 80,80 80,150 100,150 100,50 80,50 60,90 40,50"/>
    
    <!-- T harfi -->
    <rect x="120" y="50" width="80" height="20"/>
    <rect x="150" y="50" width="20" height="100"/>
    
    <!-- B harfi -->
    <path d="M220,50 L220,150 L280,150 Q300,150 300,130 Q300,110 285,100 Q300,90 300,70 Q300,50 280,50 Z
             M240,70 L240,90 L275,90 Q280,90 280,80 Q280,70 275,70 Z
             M240,110 L240,130 L275,130 Q285,130 285,120 Q285,110 275,110 Z"/>
  </g>
  
  <!-- Alt çizgi -->
  <rect x="20" y="160" width="280" height="8" fill="#E53E3E"/>
  
  <!-- Yan çizgiler -->
  <polygon points="10,40 30,60 30,160 10,180" fill="#E53E3E"/>
  <polygon points="310,40 330,60 330,160 310,180" fill="#E53E3E"/>
</svg>